<?xml version="1.0" encoding="UTF-8"?>
<svg width="141px" height="30px" viewBox="0 0 141 30" version="1.1" xmlns="http://www.w3.org/2000/svg" xmlns:xlink="http://www.w3.org/1999/xlink">
    <!-- Generator: Sketch 52.2 (67145) - http://www.bohemiancoding.com/sketch -->
    <title>anka logo</title>
    <desc>Created with Sketch.</desc>
    <g id="Page-1" stroke="none" stroke-width="1" fill="none" fill-rule="evenodd">
        <g id="home-page" transform="translate(-84.000000, -64.000000)">
            <g id="Group-5" transform="translate(-78.000000, -141.000000)">
                <g id="anka-logo" transform="translate(162.000000, 205.000000)">
                    <g id="Group-5" fill="#10B97D">
                        <g id="anka">
                            <path d="M61.3043478,27.2727273 L61.3043478,15 C61.3043478,9.72819102 57.1015426,5.45454545 51.9171196,5.45454545 C46.7326966,5.45454545 42.5298913,9.72819102 42.5298913,15 L42.5298913,27.2727273 C42.5298913,28.7789584 41.3290898,30 39.8478261,30 C38.3665624,30 37.1657609,28.7789584 37.1657609,27.2727273 L37.1657609,15 C37.1657609,6.71572875 43.7701691,0 51.9171196,0 C60.06407,0 66.6684783,6.71572875 66.6684783,15 L66.6684783,27.2727273 C66.6684783,28.7789584 65.4676768,30 63.986413,30 C62.5051493,30 61.3043478,28.7789584 61.3043478,27.2727273 Z" id="Combined-Shape"></path>
                            <path d="M29.5027174,15.7792208 L29.5027174,27.2727273 C29.5027174,28.7789584 28.3019159,30 26.8206522,30 C25.3393885,30 24.138587,28.7789584 24.138587,27.2727273 L24.138587,15.7792208 C24.138587,14.2729896 25.3393885,13.0519481 26.8206522,13.0519481 C28.3019159,13.0519481 29.5027174,14.2729896 29.5027174,15.7792208 Z" id="Combined-Shape"></path>
                            <path d="M14.7513587,30 C6.60440825,30 0,23.2842712 0,15 C0,6.71572875 6.60440825,0 14.7513587,0 C22.8983091,0 29.5027174,6.71572875 29.5027174,15 C29.5027174,23.2842712 22.8983091,30 14.7513587,30 Z M14.7513587,24.5454545 C19.9357817,24.5454545 24.138587,20.271809 24.138587,15 C24.138587,9.72819102 19.9357817,5.45454545 14.7513587,5.45454545 C9.56693568,5.45454545 5.36413043,9.72819102 5.36413043,15 C5.36413043,20.271809 9.56693568,24.5454545 14.7513587,24.5454545 Z" id="Combined-Shape"></path>
                            <path d="M126.248641,30 C118.101691,30 111.497283,23.2842712 111.497283,15 C111.497283,6.71572875 118.101691,0 126.248641,0 C134.395592,0 141,6.71572875 141,15 C141,23.2842712 134.395592,30 126.248641,30 Z M126.248641,24.5454545 C131.433064,24.5454545 135.63587,20.271809 135.63587,15 C135.63587,9.72819102 131.433064,5.45454545 126.248641,5.45454545 C121.064218,5.45454545 116.861413,9.72819102 116.861413,15 C116.861413,20.271809 121.064218,24.5454545 126.248641,24.5454545 Z" id="Combined-Shape-Copy"></path>
                            <path d="M141,15.7792208 L141,27.2727273 C141,28.7789584 139.799199,30 138.317935,30 C136.836671,30 135.63587,28.7789584 135.63587,27.2727273 L135.63587,15.7792208 C135.63587,14.2729896 136.836671,13.0519481 138.317935,13.0519481 C139.799199,13.0519481 141,14.2729896 141,15.7792208 Z" id="Combined-Shape-Copy-5"></path>
                        </g>
                    </g>
                    <g id="k" transform="translate(74.331522, 0.000000)" fill="#FF9E43">
                        <g id="Group-Copy">
                            <path d="M14.9395912,0.592196804 C15.2585887,0.461334177 15.6078813,0.38918145 15.974026,0.38918145 C17.4802571,0.38918145 18.7012987,1.61022304 18.7012987,3.11645418 C18.7012987,4.38570934 17.8342468,5.45245369 16.6601316,5.75669865 L16.6638173,5.77045408 C12.4688459,6.77333755 9.35064935,10.5398379 9.35064935,15.0330284 C9.35064935,20.2932294 13.6242949,24.5574649 18.8961039,24.5574649 C21.3577079,24.5574649 23.6016818,23.6277319 25.2945605,22.1009972 C25.3694123,22.0223302 25.4489277,21.9481238 25.5326647,21.8788193 C25.5375107,21.8741411 25.5423517,21.8694579 25.5471878,21.8647696 L25.5483532,21.8659324 C26.0182564,21.4828508 26.6185983,21.2530685 27.2727273,21.2530685 C28.7789584,21.2530685 30,22.4714215 30,23.9743361 C30,24.6270247 29.7697106,25.2260448 29.3857836,25.6949133 L29.4043903,25.7134789 C26.6980475,28.3647888 22.9884591,30 18.8961039,30 C10.6118326,30 3.8961039,23.2990586 3.8961039,15.0330284 C3.8961039,8.13343359 8.57503169,2.32425468 14.9395912,0.592196804 Z" id="Combined-Shape"></path>
                            <circle id="Oval-4-Copy-11" cx="27.1753247" cy="5.94155844" r="2.82467532"></circle>
                            <rect id="Rectangle-2-Copy-4" x="0" y="2.92207792" width="5.64935065" height="24.3506494"></rect>
                            <circle id="Oval-4-Copy-7" cx="2.82467532" cy="2.82467532" r="2.82467532"></circle>
                            <circle id="Oval-4-Copy-8" cx="2.82467532" cy="27.1753247" r="2.82467532"></circle>
                        </g>
                    </g>
                </g>
            </g>
        </g>
    </g>
</svg>