<?xml version="1.0" encoding="UTF-8"?>
<svg width="1440px" height="900px" viewBox="0 0 1440 900" version="1.1" xmlns="http://www.w3.org/2000/svg" xmlns:xlink="http://www.w3.org/1999/xlink">
    <!-- Generator: Sketch 52.2 (67145) - http://www.bohemiancoding.com/sketch -->
    <title>Group 5</title>
    <desc>Created with Sketch.</desc>
    <defs>
        <linearGradient x1="18.4408523%" y1="75.3310014%" x2="88.5612942%" y2="4.73123591%" id="linearGradient-1">
            <stop stop-color="#35E3BB" offset="0%"></stop>
            <stop stop-color="#18C285" offset="100%"></stop>
        </linearGradient>
        <linearGradient x1="94.617974%" y1="1.18324731%" x2="4.12212166%" y2="46.8922454%" id="linearGradient-2">
            <stop stop-color="#FFC085" offset="0%"></stop>
            <stop stop-color="#FF9E43" offset="100%"></stop>
        </linearGradient>
    </defs>
    <g id="Page-1" stroke="none" stroke-width="1" fill="none" fill-rule="evenodd">
        <g id="home-page">
            <g id="Group-5" transform="translate(-78.000000, -141.000000)">
                <path d="M85.7093387,749.462844 C113.698852,782.723503 165.644099,791.881228 189.353331,782.723503 C247.393551,760.305382 267.59745,721.706383 307.626197,708.723528 C365.75372,689.870547 473.939907,750.573024 434.578634,896.523144 C395.217362,1042.47326 214.932207,1234.4606 181.673386,1266.55037 C148.414565,1298.64014 70.3320353,1373.41932 40.7301878,1218.49869 C11.1283403,1063.57805 -2.45613436,738.129494 0.363810852,708.723528 C3.18375607,679.317562 57.719825,716.202185 85.7093387,749.462844 Z" id="Path-2" fill="url(#linearGradient-1)" fill-rule="nonzero"></path>
                <path d="M1609.21143,262.411495 C1570.9848,217.746297 1537.9848,199.737375 1510.21143,208.384729 C1472.09004,220.253984 1378.23694,223.595082 1327.80436,193.907225 C1276.80232,163.884142 1310.21116,98.7095061 1253.71143,98.7095061 C1197.2117,98.7095061 1184.09559,64.2924322 1162.22303,63.0686261 C1142.75305,61.9792483 1106.70412,73.8595416 1054.07624,98.7095061 C1005.54804,124.389141 967.909434,160.947549 941.160437,208.384729 C901.036942,279.5405 909.078636,401.478123 941.160437,470.161081 C966.473404,524.352847 1051.48235,668.291742 1302.47283,762.709506 C1429.10317,810.34539 1511.22571,829.678723 1548.84046,820.709506 L1609.21143,262.411495 Z" id="Path-4" fill="url(#linearGradient-2)" fill-rule="nonzero"></path>
                <path d="M1140.5,921 C1106.53449,921 1079,893.465512 1079,859.5 C1079,825.534488 1106.53449,798 1140.5,798 C1174.46551,798 1202,825.534488 1202,859.5 C1202,893.465512 1174.46551,921 1140.5,921 Z M1142,900 C1163.53911,900 1181,882.539105 1181,861 C1181,839.460895 1163.53911,822 1142,822 C1120.46089,822 1103,839.460895 1103,861 C1103,882.539105 1120.46089,900 1142,900 Z" id="Combined-Shape" fill="#FF9D6B"></path>
                <path d="M390,526 C382.268014,526 376,519.731986 376,512 C376,504.268014 382.268014,498 390,498 C397.731986,498 404,504.268014 404,512 C404,519.731986 397.731986,526 390,526 Z M390,521 C394.970563,521 399,516.970563 399,512 C399,507.029437 394.970563,503 390,503 C385.029437,503 381,507.029437 381,512 C381,516.970563 385.029437,521 390,521 Z" id="Combined-Shape-Copy-2" fill="#18C285"></path>
                <path d="M924.5,521 C920.910149,521 918,518.089851 918,514.5 C918,510.910149 920.910149,508 924.5,508 C928.089851,508 931,510.910149 931,514.5 C931,518.089851 928.089851,521 924.5,521 Z M924.5,519 C926.985281,519 929,516.985281 929,514.5 C929,512.014719 926.985281,510 924.5,510 C922.014719,510 920,512.014719 920,514.5 C920,516.985281 922.014719,519 924.5,519 Z" id="Combined-Shape-Copy-3" fill="#FF9E43"></path>
                <path d="M1439,170 C1485.9442,170 1481.61277,103.535684 1481.61277,56.5914807 C1481.61277,9.64727692 1485.9442,1.13686838e-13 1439,1.13686838e-13 C1392.0558,1.13686838e-13 1331.98011,38.0557963 1331.98011,85 C1331.98011,131.944204 1392.0558,170 1439,170 Z" id="Combined-Shape-Copy" fill="#FF9E44"></path>
            </g>
        </g>
    </g>
</svg>